<svg width="920" height="921" viewBox="0 0 920 921" fill="none" xmlns="http://www.w3.org/2000/svg" opacity=".2">
<path d="M383.333 499.333L536.676 499.3C689.674 499.3 821.32 409.426 882.836 279.822C869.554 248.83 852.66 219.814 833.201 192.779C798.944 324.741 679.197 422.625 536.673 422.625L383.33 422.67C240.146 422.67 110.167 479.388 13.8067 571.135C20.7397 599.137 30.0907 626.165 41.8456 651.879C126.037 558.449 247.667 499.331 383.329 499.331L383.333 499.333Z" fill="white"/>
<path d="M912.525 380.596C829.221 498.653 692.07 576 536.638 576H383.295C260.925 576 152.212 633.534 82.0333 722.865C97.0859 744.543 113.886 764.896 132.346 783.656C187.858 704.593 279.584 652.671 383.295 652.671H536.638C685.898 652.671 820.995 591.307 918.361 492.59C919.073 482.108 919.971 471.668 919.971 460.995C919.971 433.51 917.13 406.749 912.529 380.589L912.525 380.596Z" fill="white"/>
<path d="M383.333 269.333C244.634 269.333 115.652 310.815 7.34083 381.525C2.81117 407.4 0.00363159 433.829 0.00363159 461.004C0.00363159 467.592 0.7149 474.035 1.01439 480.541C105.942 396.545 238.767 346.001 383.332 346.001L536.675 345.967C662.561 345.967 765.017 244.25 766.512 118.689C743.04 97.6429 717.476 78.9333 690.002 63.0528V115.93C690.002 200.499 621.246 269.292 536.669 269.292L383.333 269.333Z" fill="white"/>
<path d="M383.333 192.657L536.676 192.635C578.941 192.635 613.335 158.228 613.335 115.93V27.7264C565.31 10.7275 513.879 0.997559 460.002 0.997559C272.226 0.997559 110.958 113.707 39.5044 275.052C143.043 222.748 259.614 192.655 383.335 192.655L383.333 192.657Z" fill="white"/>
<path d="M536.667 729.333H383.324C302.918 729.333 232.128 770.882 190.986 833.59C266.679 888.354 359.452 921.001 459.99 921.001C660.378 921.001 830.338 792.67 893.406 613.884C792.781 686.253 669.77 729.334 536.667 729.334V729.333Z" fill="white"/>
</svg>
