<svg width="863" height="864" viewBox="0 0 863 864" fill="none" xmlns="http://www.w3.org/2000/svg" opacity=".2">
<path d="M747.951 86.3037C747.951 133.968 709.311 172.607 661.647 172.607C613.983 172.607 575.343 133.968 575.343 86.3037C575.343 38.6396 613.983 0 661.647 0C709.311 0 747.951 38.6396 747.951 86.3037Z" fill="white"/>
<path d="M575.337 287.67C516.74 287.67 462.35 305.414 416.898 335.536L327.954 246.591C338.691 224.049 345.215 199.225 345.215 172.593C345.215 77.2936 267.907 0 172.607 0C77.3079 0 0 77.3079 0 172.593C0 267.869 77.3079 345.2 172.607 345.2C199.241 345.2 224.063 338.677 246.605 327.957L335.533 416.884C305.427 462.278 287.667 516.717 287.667 575.338C287.667 734.223 416.448 863.002 575.332 863.002C734.231 863.002 862.996 734.221 862.996 575.338C862.996 416.453 734.231 287.673 575.332 287.673L575.337 287.67Z" fill="white"/>
</svg>
