<svg width="1366" height="960" viewBox="0 0 1366 960" fill="none" xmlns="http://www.w3.org/2000/svg">
<path fill-rule="evenodd" clip-rule="evenodd" d="M951.54 312.317C974.907 307.234 999.167 304.563 1024.05 304.563C1212.4 304.563 1365.1 457.895 1365.1 647.038C1365.1 836.181 1212.4 989.513 1024.05 989.513C931.626 989.513 847.798 952.596 786.363 892.657C704.495 953.515 603.189 989.513 493.508 989.513C221.431 989.513 0.884308 768.047 0.884308 494.836C0.884308 221.625 221.431 0.138672 493.508 0.138672C701.383 0.138672 879.202 129.44 951.531 312.309L951.54 312.317ZM879.595 336.703C817.471 183.913 668.018 76.2373 493.51 76.2373C263.296 76.2373 76.6715 263.645 76.6715 494.813C76.6715 725.981 263.302 913.389 493.51 913.389C584.893 913.389 669.413 883.863 738.125 833.786C703.251 780.07 682.992 715.927 682.992 647.025C682.992 509.727 763.445 391.31 879.593 336.693L879.595 336.703ZM843.9 842.555C891.206 886.524 954.504 913.395 1024.04 913.395C1170.54 913.395 1289.31 794.141 1289.31 647.021C1289.31 499.911 1170.55 380.647 1024.04 380.647C1006.95 380.647 990.245 382.269 974.053 385.376C981.968 420.574 986.147 457.201 986.147 494.811C986.147 630.365 931.848 753.191 843.899 842.554L843.9 842.555ZM901.901 410.511C816.867 454.883 758.785 544.144 758.785 647.036C758.785 696.693 772.309 743.172 795.878 782.97C866.824 707.918 910.362 606.479 910.362 494.823C910.362 465.945 907.445 437.75 901.9 410.517L901.901 410.511Z" fill="white"/>
</svg>
