<svg width="1436" height="1042" viewBox="0 0 1436 1042" fill="none" xmlns="http://www.w3.org/2000/svg">
<path fill-rule="evenodd" clip-rule="evenodd" d="M1000.68 328.784C1025.28 323.43 1050.81 320.617 1077 320.617C1275.27 320.617 1436 482.105 1436 681.309C1436 880.512 1275.27 1042 1077 1042C979.718 1042 891.478 1003.12 826.811 939.993C740.635 1004.09 633.998 1042 518.546 1042C232.151 1042 0 808.755 0 521.011C0 233.267 232.151 0 518.546 0C737.359 0 924.535 136.179 1000.67 328.776L1000.68 328.784ZM924.948 354.467C859.556 193.549 702.238 80.1464 518.548 80.1464C276.219 80.1464 79.7751 277.523 79.7751 520.987C79.7751 764.451 276.226 961.827 518.548 961.827C614.739 961.827 703.706 930.731 776.035 877.991C739.325 821.416 718 753.862 718 681.295C718 536.695 802.686 411.979 924.946 354.456L924.948 354.467ZM887.375 887.226C937.17 933.533 1003.8 961.834 1077 961.834C1231.21 961.834 1356.22 836.237 1356.22 681.291C1356.22 526.356 1231.21 400.748 1077 400.748C1059.01 400.748 1041.42 402.456 1024.38 405.728C1032.71 442.798 1037.11 481.374 1037.11 520.985C1037.11 663.749 979.951 793.108 887.374 887.224L887.375 887.226ZM948.428 432.201C858.919 478.933 797.782 572.942 797.782 681.306C797.782 733.605 812.017 782.556 836.826 824.471C911.506 745.427 957.334 638.593 957.334 520.998C957.334 490.583 954.264 460.888 948.427 432.207L948.428 432.201Z" fill="white" fill-opacity="0.2"/>
</svg>
