<svg
          version="1.1"
          id="Layer_1"
          xmlns="http://www.w3.org/2000/svg"
          xmlns:xlink="http://www.w3.org/1999/xlink"
          x="0px"
          y="0px"
          class="zoomies-logo"
          viewBox="13 15 260 260"
          xml:space="preserve"
        >
          <g>
            <g>
              <g>
                <g>
                  <g>
                    <path
                      class="lens-inner"
                      style="fill: hsla(202, 66%, 54%, 1);"
                      d="M209.1,76.9c-3.2,4.7-6.6,10.1-10.3,15.9c-2,3.2-4.1,6.6-6.2,10.1c-6.3,10.4-12.9,21.7-19.6,33.7
                      c-2.2,4-4.5,8.1-6.7,12.1c-4.7,9.1-9.5,18.3-14.2,27.6c-5,9.9-9.7,19.5-14.1,28.4h71.4h5.2h3.8c6.2-7.9,11.3-16.9,14.9-26.8
                      C246.4,141.2,235.7,101.9,209.1,76.9z"
                    />
                  </g>
                  <g>
                    <path
                      class="lens-inner"
                      style="fill: hsla(202, 66%, 54%, 1);"
                      d="M114.6,154.8c2.2-4,4.5-8.1,6.7-12.1c4.7-9.1,9.5-18.3,14.2-27.6c5-9.9,9.7-19.5,14-28.4H78.9h-4.8h-3.8
                      c-6.4,7.9-11.5,17-15.2,27.2c-13,36.3-2.5,75.2,23.6,100.3c4.9-7.3,10.4-15.9,16.3-25.7C101.2,178.1,107.8,166.8,114.6,154.8z"
                    />
                  </g>
                  <g>
                    <path
                      class="lens-outer"
                      style="fill: hsla(207, 100%, 30%, 1);"
                      d="M257.4,92.4c-14.3-30.2-39.5-53.1-70.9-64.4C155,16.8,121,18.4,90.8,32.7c-30.2,14.3-53.1,39.5-64.4,70.9
                      c-11.3,31.5-9.6,65.4,4.6,95.7c14.3,30.2,39.5,53.1,70.9,64.4c13.9,5,28.1,7.4,42.1,7.4c51.3,0,99.6-31.9,117.9-82.9
                      C273.3,156.6,271.7,122.6,257.4,92.4z M238.4,179.6c-4.7,13-11.7,24.4-20.6,34l-1.7,3.1l-12.4,24l-1,2.1l-1.4,3.1l-3.4-0.4
                      l-2.1-0.2c-2.5-0.3-6.2-0.6-11.1-0.9l-1.5-0.1c-5.5-0.4-9.8-0.6-17.1-0.9c-18.4-0.5-27.8-0.7-47.4-0.9c-2.7,0-5.4,0-7.9,0H87.1
                      h-2.7h-4.1l-0.6-4l-0.4-2.9L77,220.8l-0.1-1c-9.5-8.7-17.4-19.2-23.1-31.3c-11.4-24.2-12.7-51.3-3.7-76.5
                      c4.6-13,11.8-24.5,20.9-34.3l1.5-2.8l11.3-23.9l0.8-2.2l1.3-3.4l3.6,0.4l2.3,0.2c2.5,0.3,6.2,0.6,11.1,0.9l1.5,0.1
                      c5.7,0.4,10.2,0.7,18.1,0.9c0.2,0,0.4,0,0.7,0c7.2,0.2,13.6,0.4,20.6,0.5c8.1,0.2,15.6,0.3,24.6,0.3c0.5,0,1.1,0,1.7,0
                      c2.3,0,4.5,0,6.7,0h23.6h2.7h4.1l0.6,4l0.4,2.9l2.3,14.8l0.1,0.5c9.9,8.8,18.1,19.6,24,32C246.1,127.3,247.4,154.5,238.4,179.6
                      z"
                    />
                  </g>
                </g>
              </g>
            </g>
            <g>
              <g>
                <path
                  class="z"
                  style="fill: hsla(41, 97%, 54%, 1);"
                  d="M89,50.6L88.1,53L76.7,77.1L74.1,82h4.8h78.2c-5.2,10.9-11,22.8-17.4,35.3c-4.7,9.3-9.5,18.6-14.2,27.7l0,0
                  c-2.2,4.1-4.5,8.2-6.8,12.2c-6.8,12-13.4,23.4-19.7,33.8c-6.1,10.1-11.7,19-16.8,26.4l-0.8,1.2l0.2,1.5l2.3,14.8l0.4,2.9h2.7
                  h23.6c8.4,0,17.5,0.1,27,0.3c9.2,0.2,18.4,0.4,27.4,0.6c8.7,0.3,13.4,0.6,19.8,1c5,0.3,8.7,0.6,11.3,0.9l2.1,0.2l1-2.1l12.5-24.2
                  l2.8-5.1h-5.2h-78.9c5.2-10.9,11-22.8,17.4-35.3c4.7-9.3,9.5-18.6,14.2-27.7l0,0c2.2-4.1,4.5-8.2,6.8-12.2
                  c6.8-12,13.4-23.4,19.7-33.8c2.1-3.5,4.2-6.9,6.2-10.1c3.7-6,7.3-11.5,10.5-16.3l0.8-1.2l-0.2-1.5l-2.3-14.8l-0.4-2.9h-2.7h-23.6
                  c-2.2,0-4.5,0-6.7,0c-6.5,0-13.3-0.1-20.2-0.2c-9.2-0.2-18.4-0.4-27.4-0.6c-8.7-0.3-13.4-0.6-19.8-1c-5-0.3-8.7-0.6-11.3-0.9
                  L89,50.6L89,50.6z"
                />
              </g>
            </g>
          </g>
        </svg>